<?xml version="1.0" standalone="no"?>
<!DOCTYPE svg PUBLIC "-//W3C//DTD SVG 20010904//EN"
 "http://www.w3.org/TR/2001/REC-SVG-20010904/DTD/svg10.dtd">
<svg version="1.0" xmlns="http://www.w3.org/2000/svg"
 width="32.000000pt" height="32.000000pt" viewBox="0 0 32.000000 32.000000"
 preserveAspectRatio="xMidYMid meet">

<g transform="translate(0.000000,32.000000) scale(0.100000,-0.100000)"
fill="#000000" stroke="none">
<path d="M61 267 c-15 -15 -14 -62 2 -75 19 -16 209 -10 215 7 3 8 0 11 -7 7
-6 -4 -11 -1 -12 6 -1 7 -2 24 -2 38 -2 25 -3 25 -93 27 -56 0 -96 -3 -103
-10z m73 -13 c15 -14 16 -14 16 0 0 9 5 16 10 16 6 0 10 -18 10 -40 0 -23 -5
-40 -11 -40 -6 0 -9 9 -6 20 4 17 0 20 -31 19 -21 0 -31 -3 -24 -6 14 -5 17
-33 3 -33 -16 0 -23 38 -11 60 13 24 23 25 44 4z m94 -2 c2 -7 -3 -12 -12 -12
-9 0 -16 7 -16 16 0 17 22 14 28 -4z m-4 -61 c-9 -10 -26 18 -18 30 5 9 9 8
14 -7 4 -10 6 -21 4 -23z"/>
<path d="M53 120 c9 -23 9 -35 -1 -50 -11 -19 -8 -19 95 -19 113 0 133 6 133
45 0 32 -36 54 -90 53 -25 0 -39 -3 -33 -6 8 -3 12 -21 11 -46 -1 -40 -1 -40
-5 -8 -6 44 -27 60 -80 61 l-41 0 11 -30z m66 -2 c9 -24 -2 -58 -19 -58 -6 0
-10 18 -10 40 0 44 16 53 29 18z m119 -26 c-5 -45 -28 -38 -28 8 0 37 2 41 16
30 8 -7 14 -25 12 -38z"/>
</g>
</svg>
